<?xml version="1.0" encoding="utf-8"?>
<svg id="Layer_1" data-name="Layer 1" viewBox="6.321 4.69 365.001 96.432" xmlns="http://www.w3.org/2000/svg">
  <defs>
    <style>.cls-1{fill:#10aa50;}.cls-2{fill:#b8c4c2;}.cls-3{fill:#12924f;}.cls-4{fill:#fff;}</style>
  </defs>
  <title>MongoDB_Logo_FullColorWhite_RGB</title>
  <g transform="matrix(0.331826, 0, 0, 0.331826, 4.223245, 3.133738)">
    <path class="cls-1" d="M 134.44 120.34 C 119.13 52.8 87.22 34.82 79.08 22.11 C 75.723 16.511 72.75 10.691 70.18 4.69 C 69.75 10.69 68.96 14.47 63.86 19.02 C 53.62 28.15 10.13 63.59 6.47 140.33 C 3.06 211.88 59.07 256 66.47 260.56 C 72.16 263.36 79.09 260.62 82.47 258.05 C 109.47 239.52 146.36 190.12 134.47 120.34"/>
    <path class="cls-2" d="M 72.5 222.46 C 71.09 240.17 70.08 250.46 66.5 260.58 C 66.5 260.58 68.85 277.44 70.5 295.3 L 76.34 295.3 C 77.733 282.723 79.86 270.239 82.71 257.91 C 75.15 254.19 72.79 238 72.5 222.46 Z"/>
    <path class="cls-3" d="M 82.7 257.92 L 82.7 257.92 C 75.06 254.39 72.85 237.86 72.51 222.46 C 74.399 197.057 74.95 171.571 74.16 146.11 C 73.76 132.75 74.35 22.37 70.87 6.21 C 73.251 11.683 75.993 16.992 79.08 22.1 C 87.22 34.82 119.14 52.8 134.44 120.34 C 146.36 190 109.67 239.27 82.7 257.92 Z"/>
    <path class="cls-4" d="M 1089.7 233.5 C 1076.929 233.499 1068.948 219.673 1075.335 208.614 C 1081.722 197.554 1097.685 197.556 1104.07 208.616 C 1105.486 211.071 1106.251 213.847 1106.29 216.68 C 1106.541 225.981 1099.003 233.623 1089.7 233.5 M 1089.7 201.82 C 1078.076 201.743 1070.728 214.278 1076.473 224.383 C 1082.219 234.488 1096.748 234.584 1102.627 224.556 C 1103.977 222.252 1104.693 219.631 1104.7 216.96 C 1104.864 208.586 1098.075 201.734 1089.7 201.82 M 1093.7 227.4 L 1089.42 218.17 L 1085.97 218.17 L 1085.97 227.4 L 1083.46 227.4 L 1083.46 206.4 L 1089.65 206.4 C 1094.26 206.4 1096.18 208.4 1096.18 212.27 C 1096.18 215.35 1094.73 217.27 1092.03 217.86 L 1096.45 227.37 Z M 1086.07 216 L 1089.7 216 C 1092.64 216 1093.76 215 1093.76 212.32 C 1093.76 209.64 1092.69 208.73 1089.38 208.73 L 1086.07 208.73 Z"/>
    <path class="cls-4" d="M 842.79 218.38 C 847.28 221.97 856.25 223.45 864.16 223.45 C 874.41 223.45 884.46 221.55 894.28 212.68 C 904.28 203.59 911.16 189.68 911.16 167.47 C 911.16 146.13 903.04 128.81 886.38 118.67 C 876.98 112.76 864.8 110.43 850.91 110.43 C 846.91 110.43 842.79 110.64 840.45 111.7 C 839.491 112.457 838.811 113.513 838.52 114.7 C 838.1 118.5 838.1 147.44 838.1 164.55 C 838.1 182.09 838.1 206.55 838.52 209.55 C 838.74 212.09 840.02 216.55 842.79 218.42 M 800.15 100.93 C 803.78 100.93 817.58 101.56 824 101.56 C 836 101.56 844.29 100.93 866.72 100.93 C 885.52 100.93 901.34 106 912.65 115.71 C 926.33 127.55 933.65 144.02 933.65 164.09 C 933.65 192.61 920.65 209.09 907.58 218.38 C 894.58 228.1 877.67 233.59 853.58 233.59 C 840.76 233.59 818.75 233.17 800.38 232.96 L 800 232.96 C 799.14 231.27 801.57 224.68 803.07 224.51 C 808.07 223.95 809.39 223.75 811.69 222.8 C 815.57 221.21 816.48 219.23 816.91 212.26 C 817.55 199.16 817.34 183.53 817.34 165.78 C 817.34 153.11 817.55 128.39 817.13 120.57 C 816.48 114.03 813.72 112.34 808.13 111.07 C 804.166 110.228 800.16 109.594 796.13 109.17 C 795.71 107.9 798.99 102.17 800.06 100.93"/>
    <path class="cls-4" d="M 986.6 111.65 C 985.75 111.86 984.68 113.98 984.68 115.03 C 984.46 122.64 984.25 142.49 984.25 156.22 C 984.361 156.757 984.782 157.174 985.32 157.28 C 988.09 157.49 994.93 157.71 1000.7 157.71 C 1008.82 157.71 1013.52 156.65 1016.08 155.38 C 1022.92 152 1026.08 144.6 1026.08 136.58 C 1026.08 118.2 1013.26 111.23 994.25 111.23 C 991.68 111.198 989.111 111.338 986.56 111.65 M 1035.06 196.15 C 1035.06 177.56 1021.38 167 996.38 167 C 995.32 167 987.38 166.79 985.49 167.21 C 984.85 167.42 984.21 167.84 984.21 168.27 C 984.21 181.58 983.99 202.91 984.64 211.36 C 985.07 214.95 987.64 220.02 990.83 221.5 C 994.25 223.4 1001.94 223.82 1007.28 223.82 C 1022.02 223.82 1035.06 215.59 1035.06 196.15 M 948 101.3 C 949.93 101.3 955.61 101.93 970.14 101.93 C 983.81 101.93 994.92 101.51 1008.14 101.51 C 1024.59 101.51 1047.23 107.43 1047.23 131.93 C 1047.23 143.93 1038.69 153.69 1027.58 158.34 C 1026.94 158.55 1026.94 158.97 1027.58 159.18 C 1043.39 163.18 1057.27 172.91 1057.27 191.5 C 1057.27 209.67 1045.95 221.08 1029.5 228.26 C 1019.5 232.7 1007.07 234.17 994.5 234.17 C 984.89 234.17 959.13 233.17 944.81 233.33 C 943.31 232.7 946.18 225.93 947.46 224.88 C 950.741 224.779 953.996 224.269 957.15 223.36 C 962.27 222.1 962.88 220.45 963.52 212.84 C 963.95 206.29 963.95 182.84 963.95 166.15 C 963.95 143.33 964.17 127.92 963.95 120.31 C 963.74 114.4 961.6 112.49 957.54 111.44 C 954.34 110.8 949 110.17 944.73 109.54 C 943.66 108.48 946.95 102.14 948.01 101.3"/>
    <path class="cls-4" d="M 181.75 233.5 C 181.2 232.148 180.977 230.685 181.1 229.23 C 181.052 228.238 181.277 227.253 181.75 226.38 C 184.513 225.982 187.251 225.424 189.95 224.71 C 193.73 223.77 195.15 221.71 195.37 216.89 C 195.99 205.5 196.03 184.13 195.81 169.11 L 195.81 168.67 C 195.81 167.05 195.81 164.85 193.81 163.3 C 190.295 161.095 186.478 159.41 182.48 158.3 C 180.69 157.77 179.7 156.83 179.75 155.73 C 179.8 154.63 180.93 153.33 183.26 152.87 C 189.45 152.24 205.67 148.37 212.04 145.43 C 212.696 146.285 213 147.358 212.89 148.43 C 212.89 149.09 212.79 149.79 212.72 150.51 C 212.54 152.63 212.34 155.04 212.34 157.44 C 212.502 158.645 213.908 159.224 214.871 158.481 C 214.923 158.44 214.973 158.397 215.02 158.35 C 227.15 148.84 238.02 145.45 243.59 145.45 C 252.76 145.45 259.9 149.83 265.43 158.85 C 265.688 159.293 266.158 159.569 266.67 159.58 C 267.135 159.576 267.568 159.344 267.83 158.96 C 278.98 150.5 290.03 145.45 297.43 145.45 C 314.91 145.45 325.36 158.54 325.36 180.45 C 325.36 186.75 325.3 194.74 325.24 202.19 C 325.19 208.73 325.14 214.86 325.14 219.1 C 325.14 220.1 326.52 222.98 328.59 223.55 C 331.15 224.8 334.84 225.44 339.51 226.24 L 339.69 226.24 C 340.04 227.5 339.3 232.39 338.59 233.39 C 337.43 233.39 335.83 233.29 333.83 233.19 C 330.2 233.01 325.22 232.76 319.43 232.76 C 307.81 232.76 301.74 232.98 295.94 233.36 C 295.5 231.91 295.35 227.23 295.88 226.25 C 298.282 225.874 300.659 225.357 303 224.7 C 306.7 223.48 307.77 221.8 308 216.89 C 308.09 213.4 308.76 182.65 307.57 175.35 C 306.47 167.78 300.77 158.92 288.3 158.92 C 283.67 158.92 276.2 160.85 269.08 166.25 C 268.638 166.751 268.39 167.393 268.38 168.06 L 268.38 168.21 C 269.22 172.15 269.22 176.75 269.22 183.7 C 269.22 187.7 269.22 191.87 269.17 196.04 C 269.12 204.52 269.08 212.52 269.22 218.57 C 269.22 222.69 271.71 223.68 273.72 224.47 C 274.81 224.71 275.67 224.92 276.54 225.12 C 278.21 225.53 279.95 225.95 282.54 226.36 C 282.923 228.117 282.889 229.939 282.44 231.68 C 282.334 232.333 282.077 232.953 281.69 233.49 C 275.23 233.27 268.6 233.08 259.03 233.08 C 256.13 233.08 251.4 233.2 247.22 233.31 C 243.83 233.4 240.63 233.49 238.81 233.5 C 238.318 232.338 238.099 231.079 238.17 229.82 C 238.068 228.633 238.3 227.442 238.84 226.38 L 241.41 225.91 C 243.65 225.51 245.59 225.17 247.41 224.71 C 250.57 223.71 251.76 221.99 251.99 217.96 C 252.61 208.56 253.09 181.47 251.76 174.69 C 249.5 163.81 243.31 158.29 233.35 158.29 C 227.52 158.29 220.15 161.1 214.13 165.61 C 212.959 166.75 212.318 168.327 212.36 169.96 C 212.36 173.19 212.36 177.03 212.36 181.15 C 212.36 194.75 212.27 211.68 212.6 219 C 212.8 221.26 213.6 223.94 217.83 224.92 C 218.76 225.19 220.36 225.45 222.22 225.76 C 223.29 225.94 224.46 226.13 225.67 226.35 C 226.055 228.745 225.859 231.197 225.1 233.5 C 223.24 233.5 220.95 233.38 218.33 233.27 C 214.33 233.09 209.33 232.87 203.68 232.87 C 197 232.87 192.35 233.09 188.62 233.27 C 186.11 233.39 183.94 233.49 181.77 233.5"/>
    <path class="cls-4" d="M 396.2 154.49 C 392.591 154.415 389.041 155.414 386 157.36 C 378.58 161.87 374.8 170.88 374.8 184.12 C 374.8 208.9 387.21 226.21 404.98 226.21 C 409.745 226.361 414.392 224.716 418 221.6 C 423.46 217.15 426.36 208.05 426.36 195.31 C 426.36 170.9 414.23 154.49 396.18 154.49 M 399.6 235.4 C 367.5 235.4 356.07 211.85 356.07 189.82 C 356.07 174.43 362.36 162.4 374.77 154.05 C 383.462 148.669 393.439 145.72 403.66 145.51 C 428.15 145.51 445.26 163.12 445.26 188.35 C 445.26 205.49 438.43 219.03 425.5 227.49 C 419.29 231.29 408.5 235.4 399.6 235.4"/>
    <path class="cls-4" d="M 723 154.49 C 719.384 154.408 715.825 155.407 712.78 157.36 C 705.36 161.87 701.58 170.88 701.58 184.12 C 701.58 208.9 713.99 226.21 731.76 226.21 C 736.538 226.371 741.202 224.725 744.82 221.6 C 750.28 217.15 753.17 208.05 753.17 195.31 C 753.17 170.9 741.05 154.49 723 154.49 M 726.42 235.4 C 694.32 235.4 682.89 211.85 682.89 189.83 C 682.89 174.42 689.18 162.4 701.6 154.05 C 710.287 148.666 720.262 145.716 730.48 145.51 C 754.97 145.51 772.08 163.13 772.08 188.34 C 772.08 205.5 765.25 219.03 752.32 227.48 C 746.11 231.29 735.32 235.4 726.42 235.4"/>
    <path class="cls-4" d="M 614.92 153.65 C 605.03 153.65 598.63 161.46 598.63 173.55 C 598.63 185.64 604.14 200.01 619.63 200.01 C 622.29 200.01 627.11 198.83 629.5 196.2 C 633.1 192.89 635.5 186.05 635.5 178.83 C 635.5 163.06 627.82 153.65 614.97 153.65 M 613.69 237.09 C 610.896 237.06 608.141 237.748 605.69 239.09 C 597.86 244.09 594.23 249.09 594.23 254.9 C 594.23 260.34 596.34 264.67 600.88 268.51 C 606.38 273.17 613.8 275.44 623.55 275.44 C 642.74 275.44 651.34 265.12 651.34 254.9 C 651.34 247.78 647.77 243.01 640.42 240.31 C 634.76 238.24 625.3 237.1 613.72 237.1 M 615 286.1 C 603.48 286.1 595.18 283.67 588.09 278.21 C 581.19 272.89 578.09 264.99 578.09 259.53 C 578.165 256.011 579.507 252.638 581.87 250.03 C 583.87 247.75 588.52 243.48 599.27 236.09 C 599.611 235.945 599.831 235.61 599.83 235.24 C 599.837 234.824 599.555 234.458 599.15 234.36 C 590.3 230.97 587.63 225.36 586.82 222.36 C 586.82 222.25 586.82 222.08 586.73 221.89 C 586.48 220.71 586.24 219.59 587.85 218.44 C 589.09 217.56 591.07 216.38 593.19 215.13 C 596.183 213.473 599.053 211.605 601.78 209.54 C 602.408 208.865 602.23 207.779 601.42 207.34 C 588.32 202.94 581.72 193.21 581.72 178.34 C 581.638 168.929 586.155 160.071 593.82 154.61 C 599.09 150.44 612.32 145.43 620.89 145.43 L 621.39 145.43 C 630.2 145.64 635.17 147.49 642.05 150.03 C 645.964 151.445 650.111 152.103 654.27 151.97 C 661.56 151.97 664.75 149.66 667.49 146.97 C 667.934 148.182 668.171 149.46 668.19 150.75 C 668.357 153.825 667.522 156.871 665.81 159.43 C 664.32 161.5 660.81 163 657.6 163 C 657.27 163 656.95 163 656.6 162.95 C 654.911 162.831 653.237 162.553 651.6 162.12 L 650.78 162.41 C 650.52 162.79 650.69 163.21 650.9 163.75 C 650.951 163.856 650.991 163.966 651.02 164.08 C 651.605 166.749 652.003 169.456 652.21 172.18 C 652.21 187.73 646.08 194.5 639.45 199.52 C 633.04 204.33 625.427 207.278 617.45 208.04 L 617.45 208.04 C 617.28 208.04 616.45 208.11 614.89 208.25 C 613.89 208.34 612.59 208.46 612.4 208.46 L 612.21 208.46 C 610.77 208.86 607.01 210.65 607.01 213.98 C 607.01 216.74 608.71 220.17 616.84 220.79 L 622.1 221.16 C 632.82 221.91 646.21 222.84 652.51 224.97 C 661.082 227.984 666.754 236.156 666.58 245.24 C 666.58 259.19 656.66 272.31 640.05 280.33 C 632.217 284.071 623.641 285.996 614.96 285.96"/>
    <path class="cls-4" d="M 565.86 226.06 C 561.16 225.43 557.73 224.79 553.68 222.89 C 552.885 222.067 552.362 221.02 552.18 219.89 C 551.75 213.34 551.75 194.33 551.75 181.89 C 551.75 171.74 550.05 162.89 545.75 156.54 C 540.62 149.35 533.36 145.13 523.96 145.13 C 515.63 145.13 504.52 150.83 495.34 158.65 C 495.12 158.86 493.71 160.2 493.74 158.12 C 493.77 156.04 494.09 151.82 494.29 149.12 C 494.47 147.665 493.951 146.211 492.89 145.2 C 486.89 148.2 470.06 152.2 463.83 152.81 C 459.29 153.69 458.14 158.06 462.99 159.57 L 463.06 159.57 C 466.942 160.641 470.648 162.271 474.06 164.41 C 475.98 165.89 475.77 168 475.77 169.69 C 475.98 183.84 475.98 205.6 475.34 217.43 C 475.13 222.08 473.84 223.77 470.42 224.62 L 470.74 224.51 C 468.136 225.163 465.494 225.657 462.83 225.99 C 461.76 227.04 461.76 233.17 462.83 234.44 C 464.97 234.44 475.83 233.81 484.83 233.81 C 497.21 233.81 503.62 234.44 506.83 234.44 C 508.12 232.96 508.54 227.26 507.69 225.99 C 504.732 225.856 501.794 225.431 498.92 224.72 C 495.51 223.88 494.65 222.18 494.44 218.39 C 494.02 208.45 494.02 187.33 494.02 172.96 C 494.02 168.96 495.08 167.05 496.36 165.96 C 500.63 162.16 507.69 159.63 513.88 159.63 C 519.88 159.63 523.88 161.53 526.88 164.06 C 530.374 167.109 532.565 171.383 533 176 C 533.85 184 533.63 200.09 533.63 214 C 533.63 221.61 533 223.52 530.22 224.36 C 528.94 224.99 525.52 225.63 521.46 226.05 C 520.18 227.32 520.6 233.23 521.46 234.5 C 527.01 234.5 533.46 233.87 542.82 233.87 C 554.57 233.87 562.05 234.5 565.04 234.5 C 566.32 233.02 566.75 227.5 565.9 226.05"/>
  </g>
</svg>