<?xml version="1.0" encoding="utf-8"?>
<svg enable-background="new 0 0 1776 2500" viewBox="0 0 354.999 499.718" xmlns="http://www.w3.org/2000/svg">
  <g transform="matrix(0.199887, 0, 0, 0.199887, 0, 0)">
    <path d="M 1776 489.9 L 0 489.9 L 166.5 2295.4 L 887.9 2500 L 1609.3 2295.4 Z" fill="#e6a329"/>
    <path d="M 887.9 637 L 887.9 2347 L 1472.4 2181.4 L 1614.6 637 Z" fill="#f1bf22"/>
    <path d="M 1352.9 858.5 L 454.2 858.5 L 391.6 1534.5 L 392.9 1530.3 L 1156.4 1530.3 L 1131.5 1816.3 L 887.9 1886.4 L 640.7 1815.2 L 625.9 1642.1 L 401.5 1642.1 L 433.5 1988 L 887.9 2117 L 1342.5 1988 L 1405.1 1309.1 L 594.8 1309.1 L 605.2 1082.9 L 1167.4 1082.9 L 1175.8 1212.5 L 1402.2 1212.5 Z" fill="#fff"/>
    <path d="M 888.1 858.5 L 454.2 858.5 L 391.6 1534.5 L 392.9 1530.3 L 888.1 1530.3 L 888.1 1309.8 L 626.4 1309.8 L 636.8 1083.6 L 888.1 1083.6 Z M 626.4 1642.1 L 401.5 1642.1 L 433.5 1987.8 L 887.9 2116.6 L 887.9 1886.6 L 640.7 1815.2 Z" fill="#ebebeb"/>
    <path d="M 715.2 223.6 L 557.1 223.6 L 557.1 337.1 L 828.3 337.1 L 828.3 0 L 715.2 0 Z M 1218.8 1.8 L 943.2 1.8 L 943.2 119.8 C 980 156.6 999.2 174.3 1053.4 227.6 L 943.2 227.6 L 943.2 335.2 L 1218.8 335.2 L 1218.8 227.8 L 1108.6 120 L 1218.8 120 Z" style="fill: rgb(255, 255, 255); paint-order: fill;"/>
  </g>
</svg>