<?xml version="1.0" encoding="utf-8"?>
<svg version="1.1" id="Layer_1" x="0px" y="0px" viewBox="67.5 129.1 355 235.175" style="enable-background:new 0 0 500 500;" xmlns="http://www.w3.org/2000/svg">
  <style type="text/css">
	.st0{fill:#E44D26;}
	.st1{fill:#F16529;}
	.st2{fill:#EFEFEF;}
	.st3{fill:#BCBCBC;}
</style>
  <g id="XMLID_1_" transform="matrix(0.972603, 0, 0, 0.972603, 1.849315, 3.536986)">
    <polyline id="XMLID_2_" class="st0" points="192,370.1 122.5,180.1 313.3,129.1 348,328.4 275.7,370.9 192,370.1 &#9;"/>
    <polyline id="XMLID_3_" class="st1" points="271.4,354.4 329.8,320 300.1,149.6 222.2,170.5 271.4,354.4 &#9;"/>
    <path id="XMLID_4_" class="st2" d="M404,227.4l8.9,30.6l-68,19.2c0,0,0,40.9-33,57.2c-33,16.3-58.7,2.5-58.7,2.5l-4.1-11.8l49-13.3 l10.8-41.9l-31.6-31L232,252.5l-3.9-10.8c0,0,21.2-46.8,83.8-20.2c0,0,19.7,12.3,24.2,23.2L404,227.4z M412.9,225.1l10.8-3.1 l8.7,31.2l-11.3,3.4L412.9,225.1z"/>
    <path id="XMLID_7_" class="st3" d="M416.8,223.7l7-1.7l8.7,31.2l-11.3,3.4l-3-10.5l4.5-1.8L416.8,223.7z M396.5,229.3l7.5-1.9 l8.9,30.6l-68,19.2c0,0-0.7,35.7-24.4,51.9c-23.6,16.2-50.3,15.7-67.3,7.8l-1.9-5.5c0,0,46.3,10.9,69.2-23.9 c13.8-22.9,13.6-39.4,13.6-39.4l68.3-18.5L396.5,229.3z M228,241.7l39.9-11.6l9.4,8.6L232,252.5L228,241.7z"/>
    <path id="XMLID_11_" class="st2" d="M87.2,263.4l8,30.8l68.3-18.3c0,0,21,35.2,57.7,32.2c36.7-2.9,51.7-27.9,51.7-27.9l-2.5-12.3 l-48.9,13.6l-30.8-30.5l11.2-42.8l46-11.4l-2.1-11.3c0,0-42.2-29.4-82.4,25.5c0,0-10.6,20.7-8.9,32.3L87.2,263.4z M78.4,265.9 l-10.9,2.9l8.5,31.3l11.5-2.8L78.4,265.9z"/>
    <path id="XMLID_14_" class="st3" d="M74.4,266.7l-6.9,2.1l8.5,31.3l11.5-2.8l-2.8-10.5l-4.8,0.8L74.4,266.7z M94.7,261.2l-7.4,2.2 l8,30.8l68.3-18.3c0,0,18.9,30.3,47.5,32.1c28.6,1.8,51.2-12.3,61.8-27.8l-1.2-5.7c0,0-34.2,33-71.7,14.9 c-23.6-12.6-31.8-27-31.8-27l-68.1,19.1L94.7,261.2z M245.8,185.6l-40.2,10.5l-3.6,12.2l46-11.4L245.8,185.6z"/>
  </g>
</svg>